<svg width="30" height="25" viewBox="0 0 30 25" fill="none" xmlns="http://www.w3.org/2000/svg">
<path d="M23.4106 19.444C20.001 17.4542 20.8033 15.9619 23.6112 14.569C25.1155 13.8726 28.4248 11.1863 29.7285 12.0818L23.4106 19.444ZM21.1041 21.9313C19.0984 21.8318 16.7919 21.5333 14.7862 22.0308C15.9896 22.3292 18.9981 23.2246 16.1902 23.9211C17.193 25.3139 18.7976 25.2144 19.8004 24.0206C19.3993 23.8216 19.0984 23.5231 18.7976 23.3241C19.9007 23.0257 20.9035 22.4287 21.1041 21.9313ZM22.3075 20.3394C21.405 19.5435 20.4021 19.5435 19.5998 20.3394C18.3964 18.2501 14.1845 18.9466 12.1788 18.6481C13.282 21.2348 21.8061 21.7323 22.3075 20.3394ZM15.4882 18.1507C13.8837 17.6532 8.66891 17.7527 12.0786 16.3598C13.1817 15.9619 18.7976 16.4593 15.4882 18.1507ZM17.4939 15.1659C16.9925 14.0716 17.895 12.7782 19.1987 13.7731C20.4021 14.569 18.597 15.7629 17.4939 15.1659ZM14.5857 15.2654C12.2791 15.9619 9.27061 14.4695 12.9811 13.7731C15.2876 13.2756 17.6945 14.2705 14.5857 15.2654C14.6859 15.2654 14.4854 15.2654 14.5857 15.2654ZM11.9783 9.09705C11.4769 10.6889 10.474 10.9874 10.5743 9.09705C10.6746 6.80878 12.1788 7.40572 13.7834 6.51031C15.0871 5.81388 15.7891 3.12765 18.0956 4.71949C19.0984 5.41592 20.3018 4.81898 20.6027 5.91337C20.6027 5.81388 17.6945 12.5792 19.299 12.5792C16.0899 12.5792 17.4939 8.79858 18.6973 6.21184C17.4939 6.80878 15.5885 10.4899 17.193 11.1863C16.3908 12.2807 13.7834 13.7731 12.4797 12.6787C11.3766 11.6838 11.9783 10.3904 11.9783 9.09705ZM7.96692 11.8828C2.35103 11.8828 6.16181 3.32663 8.06721 3.82408C10.2735 4.52051 9.9726 11.9823 7.96692 11.8828ZM1.74932 3.72459C-0.858056 3.6251 0.245069 1.13784 2.05018 0.640394C3.755 0.142944 7.26493 1.73479 8.46834 2.82918C6.66323 3.42612 4.3567 3.32663 2.35103 3.42612C2.15046 1.43632 1.64904 2.13275 1.74932 3.72459Z" fill="#DC6243"/>
</svg>
