<svg width="65" height="36" viewBox="0 0 65 36" fill="none" xmlns="http://www.w3.org/2000/svg">
<path d="M14.2452 12.7936C14.546 13.1916 14.8469 13.5895 14.7466 14.1865C14.7466 14.5844 14.1449 15.1814 14.546 15.3803L16.0503 13.5895C15.6492 13.49 12.5404 9.80889 12.5404 9.41093L10.4344 10.5053C10.5347 10.9033 11.2367 10.5053 11.6378 10.5053C12.1392 10.5053 12.5404 10.9033 12.9415 11.2018C11.8384 12.0972 9.13072 14.4849 8.82987 14.4849C8.72958 14.4849 8.12788 14.087 8.12788 14.4849C8.12788 14.6839 8.72958 15.1814 8.82987 15.2808L10.2338 16.9722C10.635 16.7732 10.1336 16.4747 10.3341 16.1763C10.4344 15.9773 13.5432 13.49 14.2452 12.7936ZM10.8355 8.31654C11.1364 8.21705 11.2367 8.61501 11.4372 8.31654L9.8327 6.42623C9.63214 6.12776 9.33128 5.82929 9.33128 6.42623C9.43157 6.82419 5.31993 10.1074 5.11936 10.2069C4.81851 10.3063 4.61794 9.90838 4.41738 10.3063C4.91879 10.9033 5.31993 11.4007 5.82135 11.9977C6.02192 12.1967 6.1222 12.3956 6.32277 12.5946C6.52334 12.7936 6.42305 12.1967 6.42305 12.1967C6.32277 11.8982 6.72391 11.5997 7.02476 11.4007C8.0276 10.4058 10.5347 8.31654 10.8355 8.31654ZM5.11936 7.7196C4.01624 8.01807 2.71255 7.62011 2.4117 6.42623C2.01056 5.23235 2.81283 4.03847 3.71539 3.34204C4.61794 2.64561 6.02192 2.7451 6.52334 3.83949C6.72391 4.33694 6.62362 4.93388 6.42305 5.43133C6.32277 5.7298 6.02192 6.02827 6.42305 6.22725C7.02476 5.53082 7.52617 4.83439 8.12788 4.13796C7.42589 3.74 7.12504 3.04357 6.62362 2.44663C6.02192 1.7502 5.31993 1.05377 4.31709 0.954275C2.4117 0.655805 0.706876 2.64561 0.506309 4.33694C0.406025 5.23235 0.706875 6.12776 1.30858 6.92368C1.81 7.52062 2.51198 8.01807 2.91312 8.7145C3.11369 8.81399 4.71823 8.01807 5.01908 7.91858C5.21965 7.91858 5.11936 7.81909 5.11936 7.7196C4.61794 7.91858 5.11936 7.7196 5.11936 7.7196ZM30.6917 31.1993C29.9898 30.7018 28.0844 28.2146 27.6832 27.7171L27.4827 27.4186L27.2821 27.5181C27.1818 27.6176 27.3824 27.9161 27.2821 28.1151C26.7807 28.911 23.5716 31.2988 23.371 31.4977C22.9699 31.6967 22.5687 31.3982 22.3682 31.6967C22.8696 32.2937 24.1733 33.985 24.3739 33.985C24.6747 33.985 24.4741 33.4875 24.4741 33.388C24.5744 33.1891 26.179 31.7962 26.7807 31.2988C26.9812 31.0998 27.1818 31.5972 27.3824 31.7962C27.5829 32.0947 27.6832 32.4926 27.5829 32.7911C27.4827 32.9901 27.0815 33.388 27.3824 33.587C27.7835 33.0896 28.8866 31.7962 29.0872 31.5972C29.2878 31.3982 28.6861 31.5972 28.7863 31.4977C28.5858 31.5972 28.2849 31.6967 28.0844 31.4977C27.9841 31.4977 27.3824 30.8013 27.4827 30.7018C27.7835 30.5028 28.0844 30.1049 28.4855 30.0054C29.0872 29.9059 29.4883 31.0003 29.5886 31.3982C29.6889 31.7962 29.6889 32.1942 29.4883 32.4926C29.3881 32.7911 29.1875 32.9901 29.4883 33.0896L30.8923 31.1993C30.8923 31.2988 30.792 31.2988 30.6917 31.1993C30.5915 31.1993 30.792 31.2988 30.6917 31.1993ZM21.4656 22.3446C20.7636 22.3446 20.0617 22.6431 19.4599 23.1406C18.056 24.3344 17.8554 26.4237 18.9585 27.9161C20.2622 29.6074 22.3682 29.8064 24.073 28.6125C25.477 27.4186 25.6775 25.3293 24.5744 23.837C23.7722 22.8421 22.5687 22.3446 21.4656 22.3446ZM22.669 23.7375C23.5716 23.638 24.1733 24.5334 23.7722 25.5283C23.371 26.5232 22.3682 27.5181 21.3653 27.9161C20.1619 28.4135 19.3597 27.4186 19.8611 26.2248C20.2622 25.2299 21.2651 24.235 22.2679 23.837C22.3682 23.837 22.4685 23.7375 22.669 23.7375ZM19.8611 19.161C20.1619 19.161 20.4628 19.5589 20.6634 19.161L19.2594 17.4696C18.8582 17.6686 19.2594 17.8676 19.1591 18.0666C18.9585 18.365 17.4543 18.564 17.0531 18.6635C17.1534 18.2655 17.6548 16.9722 17.8554 16.8727C18.2565 16.5742 18.4571 17.1712 18.6577 16.7732L16.8526 14.6839C16.652 14.4849 16.4514 13.9875 16.2509 14.2859C16.2509 14.2859 16.2509 15.2808 16.1506 15.3803C16.0503 15.5793 15.5489 17.7681 14.9472 18.2655C14.6463 18.564 13.4429 19.5589 13.1421 19.6584C12.8412 19.7579 12.6407 19.2605 12.3398 19.6584L13.9443 21.5487C14.0446 21.6482 14.3455 22.1457 14.4458 22.1457C14.7466 22.2452 14.4458 21.5487 14.546 21.4492C14.6463 21.1508 16.1506 19.6584 16.8526 19.5589C17.7551 19.3599 18.8582 19.0615 19.8611 19.161C20.0617 19.161 19.6605 19.161 19.8611 19.161ZM44.1298 25.8268C44.2301 26.2248 44.3303 26.7222 44.2301 27.1202C44.1298 27.7171 43.6284 29.0105 42.8261 28.6125C42.0238 28.2146 41.4221 27.5181 40.7201 26.9212C41.2215 26.3242 41.723 25.8268 42.6255 26.1253C42.8261 26.2248 43.0266 26.1253 42.8261 25.9263C42.5252 25.7273 40.8204 24.6329 40.7201 24.7324C40.5196 24.9314 41.021 25.3293 40.8204 25.7273C40.7201 26.0258 40.4193 26.2248 40.2187 26.5232C39.7173 26.1253 39.0153 25.7273 39.5167 25.0309C39.9179 24.6329 40.319 24.235 40.9207 24.1355C41.3218 24.036 42.1241 24.4339 42.2244 24.036C41.5224 23.7375 40.8204 23.3395 40.1184 23.0411C40.2187 23.5385 37.9122 25.9263 37.4108 26.5232C37.3105 26.6227 37.0096 26.9212 37.0096 27.0207C37.0096 27.3191 37.4108 27.1202 37.4108 27.1202C37.7116 27.0207 41.8232 30.4033 41.9235 30.7018C42.0238 30.9008 41.8232 31.0998 41.9235 31.1993C41.9235 31.1993 42.0238 31.2988 42.1241 31.2988C42.4249 31.0003 45.0323 27.4186 45.634 27.3191C45.1326 26.5232 44.6312 25.7273 44.1298 24.9314C43.7286 25.1304 44.0295 25.6278 44.1298 25.8268ZM40.1184 30.2044C38.8147 29.309 36.5082 31.0003 36.1071 31.1993C35.4051 31.4977 34.9037 30.8013 35.3048 30.2044C35.6056 29.7069 36.2073 29.4084 36.8091 29.4084C37.0096 29.4084 37.7116 29.5079 37.7116 29.4084C37.8119 29.3089 37.8119 29.309 37.7116 29.2095C37.1099 28.8115 36.6085 28.4135 36.0068 28.1151C35.9065 28.8115 35.1042 29.2095 34.7031 29.7069C34.2017 30.3039 33.7003 31.0003 33.7003 31.6967C33.7003 32.3931 34.1014 33.0896 34.8034 33.388C35.5054 33.786 36.3076 33.4875 37.0096 33.0896C37.4108 32.7911 37.8119 32.4926 38.213 32.2937C38.8147 31.9952 39.7173 32.2937 39.5167 33.0896C39.3162 33.786 38.6142 34.3829 37.9122 34.5819C37.511 34.6814 37.1099 34.6814 36.7088 34.4824C36.4079 34.3829 36.1071 33.985 35.9065 34.3829L38.213 35.9748C38.3133 35.4773 38.5139 35.2784 38.915 34.9799C39.4164 34.5819 39.8176 34.0845 40.2187 33.587C41.021 32.6916 41.3218 31.0998 40.1184 30.2044ZM57.7684 2.24765C57.7684 2.34714 57.7684 2.34714 57.7684 2.24765L56.8658 3.24255L56.0635 4.23745C55.863 4.43643 55.7627 4.53592 56.0635 4.7349C56.565 4.43643 59.5735 9.51042 59.3729 10.2069C58.8715 10.4058 54.8601 6.92368 54.7599 6.7247C54.7599 6.62521 54.9604 6.02827 54.6596 6.12776C54.5593 6.12776 54.1582 6.7247 54.0579 6.82419L53.4562 7.52062C53.6567 7.81909 53.757 7.52062 54.0579 7.52062C54.2584 7.62011 55.2613 8.41603 55.5621 8.61501C55.0607 8.61501 53.8573 8.7145 53.6567 8.7145C53.055 8.81399 53.3559 8.31654 52.9547 8.11756L51.4505 9.90838L50.5479 10.9033C50.5479 10.9033 50.5479 10.9033 50.5479 11.0028C50.7485 11.2018 50.6482 11.1023 50.9491 11.0028C51.2499 10.9033 55.2613 14.1865 55.3616 14.3854C55.5621 14.6839 55.2613 14.9824 55.6624 15.1814L56.8658 13.7885C56.9661 13.689 56.9661 13.689 56.8658 13.689C56.565 13.49 56.565 13.7885 56.1638 13.7885C55.863 13.689 53.2556 11.5997 52.353 10.8038L57.6681 10.6048C57.8687 10.6048 58.3701 11.2018 58.3701 11.4007C58.2698 11.5997 58.0692 11.7987 58.3701 11.8982C58.6709 11.5002 58.9718 11.2018 59.2726 10.8038L59.3729 10.6048C59.4732 10.6048 59.4732 10.5053 59.4732 10.4058L59.5735 10.3063C59.8743 10.0079 60.7769 9.01297 60.6766 8.91348C60.3758 8.61501 60.2755 9.21195 59.8743 8.91348C59.6738 8.7145 59.0721 7.7196 58.9718 7.52062C58.7712 7.22215 59.3729 6.92368 59.5735 6.82419C60.0749 6.52572 61.6794 6.02827 61.88 7.02317C61.88 7.22215 61.6794 7.42113 61.7797 7.52062C61.7797 7.52062 61.88 7.7196 61.9803 7.62011L64.0863 5.03337C63.986 4.93388 63.986 4.93388 63.8857 4.83439C63.3843 5.33184 58.3701 3.34204 58.0692 3.04357C57.9689 2.84459 57.9689 2.24765 57.7684 2.24765ZM57.5678 4.83439C58.3701 5.13286 59.0721 5.43133 59.8743 5.82929C59.6738 5.92878 59.4732 6.02827 59.2726 6.12776C59.0721 6.22725 58.8715 6.42623 58.6709 6.62521L57.5678 4.83439ZM50.9491 12.4951C49.8459 12.3956 48.7428 12.8931 47.9406 13.7885C46.7371 15.2808 46.8374 17.4696 48.3417 18.6635C49.8459 19.8574 52.0522 19.5589 53.2556 18.1661C54.459 16.6737 54.3587 14.4849 52.8545 13.291C52.353 12.8931 51.6511 12.5946 50.9491 12.4951ZM49.5451 14.087C50.1468 14.087 50.8488 14.4849 51.2499 14.7834C52.0522 15.2808 53.4562 16.4747 52.7542 17.4696C52.7542 17.3701 52.8545 17.3701 52.6539 17.5691C51.8516 18.365 50.4477 17.6686 49.7457 17.0717C49.0437 16.5742 47.74 15.3803 48.5423 14.3854C48.8431 14.1865 49.144 14.087 49.5451 14.087ZM46.4363 18.365C45.2329 18.2655 44.0295 18.8625 43.1269 19.9569C42.5252 20.7528 41.8232 21.4492 41.2215 22.2452C41.4221 22.5436 41.723 22.1457 42.0238 22.3446C42.3247 22.5436 46.1355 25.6278 46.1355 25.8268C46.2357 26.1253 45.9349 26.2248 46.2357 26.4237C46.336 26.5232 49.144 23.0411 49.4448 22.4441C49.8459 21.3497 49.5451 20.0564 48.6425 19.2605C48.7428 19.3599 48.8431 19.3599 48.6425 19.2605C47.8403 18.6635 47.1383 18.365 46.4363 18.365ZM45.3332 19.9569C45.4335 19.9569 45.5337 19.9569 45.634 19.9569C47.038 20.3548 49.0437 22.0462 47.74 23.5385C47.5394 23.7375 47.74 23.5385 47.3389 23.9365C47.1383 24.1355 43.1269 20.9518 43.3275 20.7528C43.7286 20.2554 44.6312 19.8574 45.3332 19.9569Z" fill="white"/>
</svg>
