<svg width="67" height="55" viewBox="0 0 67 55" fill="none" xmlns="http://www.w3.org/2000/svg">
<path d="M61.8768 3.58164V1.19388H63.9827L61.8768 3.58164ZM12.5371 12.9337C12.6374 13.0332 14.9439 10.5459 18.6544 8.0587C22.0641 5.77043 27.2788 3.18368 33.0953 3.18368C38.9118 3.18368 44.2268 5.86992 47.6365 8.15819C51.347 10.5459 53.6535 12.9337 53.7538 13.0332L51.2467 16.0179C46.7339 16.6148 43.5248 19.898 39.1123 19.2016C36.9061 18.8036 36.8058 17.6097 36.2041 16.3164C35.7027 15.3215 34.9004 15.5205 33.8976 15.1225C32.995 14.7245 32.3933 14.0281 30.4879 14.4261C28.8834 14.824 28.6828 17.3113 26.5769 17.2118C25.4737 17.1123 25.3734 15.6199 23.7689 13.6301C19.6573 8.75513 15.8465 9.45156 13.2391 13.9286L32.8947 37.1098L12.5371 12.9337ZM4.11328 1.19388V3.08419L2.50874 1.19388H4.11328ZM58.1663 1.19388H61.3753V4.17858L58.1663 7.95921V1.19388ZM54.0546 12.5358V1.19388H57.5646V8.55615L54.0546 12.5358C54.1549 12.5358 54.0546 12.5358 54.0546 12.5358ZM53.5532 2.18878V12.0383C52.4501 10.9439 51.2467 9.94901 49.943 9.0536L53.5532 2.18878ZM49.4416 1.89031V8.65564C48.9401 8.35717 48.539 7.95921 47.9373 7.66074C47.2353 7.26278 46.5333 6.76533 45.7311 6.36737L49.4416 1.89031ZM45.0291 1.69133V5.96941C44.0262 5.47195 42.9231 4.9745 41.9203 4.47705L45.0291 1.69133ZM45.6308 1.19388H49.3413L45.6308 5.77043V1.19388ZM49.943 1.19388H53.5532L49.943 8.25768V1.19388ZM41.118 1.19388H45.0291L41.5191 4.27807C41.4189 4.27807 41.3186 4.17858 41.2183 4.17858L41.118 1.19388ZM40.6166 1.59184V3.9796C39.6138 3.58164 38.6109 3.28317 37.5078 3.08419L40.6166 1.59184ZM36.4047 1.59184V2.88521C35.7027 2.78572 35.0007 2.68623 34.1984 2.58674L36.4047 1.59184ZM29.5854 1.59184L31.7916 2.58674C30.9893 2.58674 30.2874 2.68623 29.5854 2.88521V1.59184ZM25.4737 1.59184L28.5825 3.08419C27.4794 3.28317 26.4766 3.58164 25.4737 3.9796V1.59184ZM29.084 2.78572L25.7746 1.19388H29.084V2.78572ZM32.5939 2.38776L29.7859 1.09439H32.5939V2.38776ZM33.2959 1.19388H36.2041L33.2959 2.48725V1.19388ZM37.0064 1.19388H40.2155L37.0064 2.78572V1.19388ZM24.5712 4.27807L21.0612 1.19388H24.9723V4.17858L24.5712 4.27807ZM20.961 1.69133L24.0698 4.37756C22.9666 4.77552 21.9638 5.27297 20.961 5.86992V1.69133ZM16.6488 1.89031L20.259 6.36737C18.9553 7.0638 17.7519 7.85972 16.6488 8.75513V1.89031ZM12.4368 2.18878L16.0471 9.15309C14.7434 10.148 13.54 11.1429 12.4368 12.3368V2.18878ZM16.1473 8.15819L12.5371 1.09439H16.1473V8.15819ZM20.4595 5.67093L16.749 1.09439H20.4595V5.67093ZM7.82378 7.46176L4.6147 3.68113V1.19388H7.82378V7.46176ZM8.42548 1.19388H11.9354V12.3368L8.42548 8.15819V1.19388ZM33.2959 0H0.101929V14.5256L32.995 54.2221L33.1956 53.9236L66.2892 14.9235V0H33.2959Z" fill="#491213"/>
</svg>
