<svg width="48" height="48" viewBox="0 0 48 48" fill="none" xmlns="http://www.w3.org/2000/svg">
<path d="M18 17H16V19H18V17Z" fill="black"/>
<path d="M32 17H20V19H32V17Z" fill="black"/>
<path d="M18 21H16V23H18V21Z" fill="black"/>
<path d="M32 21H20V23H32V21Z" fill="black"/>
<path d="M18 25H16V27H18V25Z" fill="black"/>
<path d="M32 25H20V27H32V25Z" fill="black"/>
<path d="M18 29H16V31H18V29Z" fill="black"/>
<path d="M32 29H20V31H32V29Z" fill="black"/>
<path d="M4 2H44V-2H4V2ZM46 4V44H50V4H46ZM44 46H4V50H44V46ZM2 44V4H-2V44H2ZM4 46C2.89543 46 2 45.1046 2 44H-2C-2 47.3137 0.68629 50 4 50V46ZM46 44C46 45.1046 45.1046 46 44 46V50C47.3137 50 50 47.3137 50 44H46ZM44 2C45.1046 2 46 2.89543 46 4H50C50 0.686292 47.3137 -2 44 -2V2ZM4 -2C0.686292 -2 -2 0.68629 -2 4H2C2 2.89543 2.89543 2 4 2V-2Z" fill="#E5E5E5"/>
</svg>
