<svg width="160" height="48" fill="none" xmlns="http://www.w3.org/2000/svg"><path d="M20 17h-4v6h4v-6ZM32 17h-4v6h4v-6ZM26 17h-4v6h4v-6ZM20 25h-4v6h4v-6ZM32 25h-4v6h4v-6ZM26 25h-4v6h4v-6ZM4 2h40v-4H4v4Zm42 2v40h4V4h-4Zm-2 42H4v4h40v-4ZM2 44V4h-4v40h4Zm2 2a2 2 0 0 1-2-2h-4a6 6 0 0 0 6 6v-4Zm42-2a2 2 0 0 1-2 2v4a6 6 0 0 0 6-6h-4ZM44 2a2 2 0 0 1 2 2h4a6 6 0 0 0-6-6v4ZM4-2a6 6 0 0 0-6 6h4c0-1.1.9-2 2-2v-4ZM88 29H72v2h16v-2ZM86 19v6H74v-6h12Zm2-2H72v10h16V17Z" fill="#000"/><path d="M60 2h40v-4H60v4Zm42 2v40h4V4h-4Zm-2 42H60v4h40v-4Zm-42-2V4h-4v40h4Zm2 2a2 2 0 0 1-2-2h-4a6 6 0 0 0 6 6v-4Zm42-2a2 2 0 0 1-2 2v4a6 6 0 0 0 6-6h-4Zm-2-42a2 2 0 0 1 2 2h4a6 6 0 0 0-6-6v4ZM60-2a6 6 0 0 0-6 6h4c0-1.1.9-2 2-2v-4Z" fill="#E5E5E5"/><path d="M130 17h-2v2h2v-2ZM144 17h-12v2h12v-2ZM130 21h-2v2h2v-2ZM144 21h-12v2h12v-2ZM130 25h-2v2h2v-2ZM144 25h-12v2h12v-2ZM130 29h-2v2h2v-2ZM144 29h-12v2h12v-2Z" fill="#000"/><path d="M116 2h40v-4h-40v4Zm42 2v40h4V4h-4Zm-2 42h-40v4h40v-4Zm-42-2V4h-4v40h4Zm2 2a2 2 0 0 1-2-2h-4a6 6 0 0 0 6 6v-4Zm42-2a2 2 0 0 1-2 2v4a6 6 0 0 0 6-6h-4Zm-2-42a2 2 0 0 1 2 2h4a6 6 0 0 0-6-6v4Zm-40-4a6 6 0 0 0-6 6h4c0-1.1.9-2 2-2v-4Z" fill="#E5E5E5"/></svg>